<svg width="174" height="407" viewBox="0 0 174 407" fill="none" xmlns="http://www.w3.org/2000/svg">
<path d="M174 110.5C174 189.137 142.762 264.553 87.1573 320.157C31.5528 375.762 -43.8631 407 -122.5 407L-122.5 110.5H174Z" fill="#F54606" fill-opacity="0.31"/>
<mask id="path-2-inside-1_299_20473" fill="white">
<path d="M-6.33694 29.2671C4.33071 29.2671 14.8939 31.3682 24.7495 35.4506C34.6052 39.5329 43.5602 45.5165 51.1034 53.0597C58.6466 60.6028 64.6301 69.5579 68.7125 79.4135C72.7948 89.2691 74.8959 99.8323 74.8959 110.5C74.8959 121.168 72.7948 131.731 68.7124 141.586C64.6301 151.442 58.6465 160.397 51.1033 167.94C43.5602 175.483 34.6051 181.467 24.7495 185.549C14.8938 189.632 4.33065 191.733 -6.33701 191.733L-6.33694 110.5L-6.33694 29.2671Z"/>
</mask>
<path d="M-6.33694 29.2671C4.33071 29.2671 14.8939 31.3682 24.7495 35.4506C34.6052 39.5329 43.5602 45.5165 51.1034 53.0597C58.6466 60.6028 64.6301 69.5579 68.7125 79.4135C72.7948 89.2691 74.8959 99.8323 74.8959 110.5C74.8959 121.168 72.7948 131.731 68.7124 141.586C64.6301 151.442 58.6465 160.397 51.1033 167.94C43.5602 175.483 34.6051 181.467 24.7495 185.549C14.8938 189.632 4.33065 191.733 -6.33701 191.733L-6.33694 110.5L-6.33694 29.2671Z" fill="#F57C06" fill-opacity="0.34" stroke="#F56262" stroke-width="10" mask="url(#path-2-inside-1_299_20473)"/>
<mask id="path-3-inside-2_299_20473" fill="white">
<path d="M-6.33697 15.4575C6.25086 15.4575 18.7154 17.9369 30.3451 22.754C41.9747 27.5712 52.5417 34.6318 61.4426 43.5328C70.3436 52.4337 77.4042 63.0007 82.2213 74.6303C87.0385 86.2599 89.5178 98.7245 89.5178 111.312C89.5178 123.9 87.0385 136.365 82.2213 147.994C77.4041 159.624 70.3435 170.191 61.4426 179.092C52.5416 187.993 41.9747 195.053 30.345 199.871C18.7154 204.688 6.25078 207.167 -6.33705 207.167L-6.33698 111.312L-6.33697 15.4575Z"/>
</mask>
<path d="M-6.33697 15.4575C6.25086 15.4575 18.7154 17.9369 30.3451 22.754C41.9747 27.5712 52.5417 34.6318 61.4426 43.5328C70.3436 52.4337 77.4042 63.0007 82.2213 74.6303C87.0385 86.2599 89.5178 98.7245 89.5178 111.312C89.5178 123.9 87.0385 136.365 82.2213 147.994C77.4041 159.624 70.3435 170.191 61.4426 179.092C52.5416 187.993 41.9747 195.053 30.345 199.871C18.7154 204.688 6.25078 207.167 -6.33705 207.167L-6.33698 111.312L-6.33697 15.4575Z" fill="#F57C06" fill-opacity="0.34" stroke="white" stroke-width="6" mask="url(#path-3-inside-2_299_20473)"/>
<path d="M-6.33697 43.8892C2.51719 43.8892 11.2846 45.6331 19.4648 49.0215C27.645 52.4098 35.0777 57.3762 41.3385 63.637C47.5993 69.8978 52.5657 77.3305 55.954 85.5107C59.3424 93.6909 61.0863 102.458 61.0863 111.312C61.0863 120.167 59.3424 128.934 55.954 137.114C52.5657 145.294 47.5993 152.727 41.3385 158.988C35.0777 165.249 27.645 170.215 19.4648 173.603C11.2846 176.992 2.51716 178.736 -6.33699 178.736L-6.33697 111.312L-6.33697 43.8892Z" fill="#F57C06" fill-opacity="0.34"/>
</svg>
